HIERARCHY
ROOT SpineBase
{
  OFFSET 0.000000 0.000000 0.000000
  CHANNELS 6 Xposition Yposition Zposition Zrotation Xrotation Yrotation
  JOINT SpineMid
  {
    OFFSET 0.000000 29.483821 0.000000
    CHANNELS 3 Zrotation Xrotation Yrotation
    JOINT SpineShoulder
    {
      OFFSET -0.074502 21.898920 -0.772228
      CHANNELS 3 Zrotation Xrotation Yrotation
      JOINT Neck
      {
        OFFSET -0.028996 7.247069 -0.580285
        CHANNELS 3 Zrotation Xrotation Yrotation
        JOINT Head
        {
          OFFSET -3.080388 13.516243 0.297402
          CHANNELS 3 Zrotation Xrotation Yrotation
          End Site
          {
            OFFSET 0 0 0
          }
        }
      }
      JOINT ShoulderLeft
      {
        OFFSET -15.782465 -4.837089 5.784154
        CHANNELS 3 Zrotation Xrotation Yrotation
        JOINT ElbowLeft
        {
          OFFSET -0.901597 -26.342382 2.631422
          CHANNELS 3 Zrotation Xrotation Yrotation
          JOINT WristLeft
          {
            OFFSET 1.710111 -22.667941 -4.571521
            CHANNELS 3 Zrotation Xrotation Yrotation
            JOINT HandLeft
            {
              OFFSET -0.150640 -4.660337 -1.072675
              CHANNELS 3 Zrotation Xrotation Yrotation
              JOINT HandTipLeft
              {
                OFFSET 1.295787 -6.706311 -2.141499
                CHANNELS 3 Zrotation Xrotation Yrotation
                End Site
                {
                  OFFSET 0 0 0
                }
              }
              JOINT ThumbLeft
              {
                OFFSET 2.808903 -0.008375 -4.558899
                CHANNELS 3 Zrotation Xrotation Yrotation
                End Site
                {
                  OFFSET 0 0 0
                }
              }
            }
          }
        }
      }
      JOINT ShoulderRight
      {
        OFFSET 12.216493 -3.839895 -10.011691
        CHANNELS 3 Zrotation Xrotation Yrotation
        JOINT ElbowRight
        {
          OFFSET 5.211552 -23.789734 -1.387733
          CHANNELS 3 Zrotation Xrotation Yrotation
          JOINT WristRight
          {
            OFFSET -0.269695 -19.104683 -5.569181
            CHANNELS 3 Zrotation Xrotation Yrotation
            JOINT HandRight
            {
              OFFSET -1.049280 -6.472336 -0.623401
              CHANNELS 3 Zrotation Xrotation Yrotation
              JOINT HandTipRight
              {
                OFFSET 0.346841 -6.479154 0.065131
                CHANNELS 3 Zrotation Xrotation Yrotation
                End Site
                {
                  OFFSET 0 0 0
                }
              }
              JOINT ThumbRight
              {
                OFFSET -3.412268 1.345944 0.496799
                CHANNELS 3 Zrotation Xrotation Yrotation
                End Site
                {
                  OFFSET 0 0 0
                }
              }
            }
          }
        }
      }
    }
  }
  JOINT HipLeft
  {
    OFFSET -5.480603 0.101344 -0.519865
    CHANNELS 3 Zrotation Xrotation Yrotation
    JOINT KneeLeft
    {
      OFFSET 5.271648 -26.086447 5.697535
      CHANNELS 3 Zrotation Xrotation Yrotation
      JOINT AnkleLeft
      {
        OFFSET 6.087116 -33.056391 8.218604
        CHANNELS 3 Zrotation Xrotation Yrotation
        JOINT FootLeft
        {
          OFFSET -3.634272 -2.836257 -10.046219
          CHANNELS 3 Zrotation Xrotation Yrotation
          End Site
          {
            OFFSET 0 0 0
          }
        }
      }
    }
  }
  JOINT HipRight
  {
    OFFSET 5.310803 1.569597 -6.166748
    CHANNELS 3 Zrotation Xrotation Yrotation
    JOINT KneeRight
    {
      OFFSET 9.614749 -25.588833 2.295155
      CHANNELS 3 Zrotation Xrotation Yrotation
      JOINT AnkleRight
      {
        OFFSET 5.003427 -32.627177 8.587908
        CHANNELS 3 Zrotation Xrotation Yrotation
        JOINT FootRight
        {
          OFFSET -3.767765 -2.829689 -10.035307
          CHANNELS 3 Zrotation Xrotation Yrotation
          End Site
          {
            OFFSET 0 0 0
          }
        }
      }
    }
  }
}
MOTION
Frames: 6
Frame Time: 0.033333
7.463681 63.552036 327.261819 -0.000000 0.000000 27.621976 0.000000 0.000000 -27.621976 -0.000000 0.000000 0.000000 -0.000000 0.000000 0.000000 0.000000 0.000000 0.000000 -0.000000 0.000000 0.000000 -0.000000 0.000000 0.000000 -0.000000 0.000000 0.000000 -0.000000 0.000000 0.000000 0.000000 0.000000 0.000000 0.000000 0.000000 0.000000 -0.000000 0.000000 0.000000 -0.000000 0.000000 0.000000 -0.000000 0.000000 0.000000 -0.000000 0.000000 0.000000 0.000000 0.000000 0.000000 0.000000 0.000000 0.000000 0.000000 0.000000 -27.621976 -0.000000 0.000000 0.000000 -0.000000 0.000000 0.000000 0.000000 0.000000 0.000000 0.000000 0.000000 -27.621976 -0.000000 0.000000 0.000000 -0.000000 0.000000 0.000000 0.000000 0.000000 0.000000
7.430892 63.539182 327.263493 -0.031384 0.024275 27.515320 0.016619 -0.036028 -27.515309 -0.000000 0.000000 0.000000 -0.000000 0.000000 0.000000 0.000000 0.000000 0.000000 -0.000000 0.000000 0.000000 -0.000000 0.000000 0.000000 1.363746 -0.667209 -0.284893 0.999545 3.285277 -0.032132 0.000000 0.000000 0.000000 0.000000 0.000000 0.000000 -0.000000 0.000000 0.000000 -0.000000 0.000000 0.000000 0.449837 -2.679330 0.402800 -0.431470 2.682347 -0.382179 0.000000 0.000000 0.000000 0.000000 0.000000 0.000000 0.016619 -0.036028 -27.515309 -0.000000 0.000000 0.000000 -0.000000 0.000000 0.000000 0.000000 0.000000 0.000000 0.016619 -0.036028 -27.515309 -0.000000 0.000000 0.000000 -0.000000 0.000000 0.000000 0.000000 0.000000 0.000000
7.404003 63.527797 327.259132 -0.050924 0.051858 27.421633 0.021320 -0.069483 -27.421597 -0.000000 0.000000 0.000000 -0.000000 0.000000 0.000000 0.000000 0.000000 0.000000 -0.000000 0.000000 0.000000 -0.000000 0.000000 0.000000 2.300591 -1.222928 -0.466961 1.882612 5.931616 -0.176477 0.000000 0.000000 0.000000 0.000000 0.000000 0.000000 -0.000000 0.000000 0.000000 0.796952 -0.501155 -0.222067 -0.270095 -3.964553 0.923063 -1.249635 4.025993 -0.633668 0.000000 0.000000 0.000000 0.000000 0.000000 0.000000 0.021320 -0.069483 -27.421597 -0.000000 0.000000 0.000000 -0.000000 0.000000 0.000000 0.000000 0.000000 0.000000 -0.887074 -0.413305 -27.755930 1.319446 1.293932 0.579569 -0.681311 -0.559720 -0.268394 0.000000 0.000000 0.000000
7.383015 63.517882 327.248734 -0.058635 0.082749 27.341041 0.014080 -0.100435 -27.340986 -0.000000 0.000000 0.000000 -0.000000 0.000000 0.000000 0.000000 0.000000 0.000000 -0.000000 0.000000 0.000000 -0.000000 0.000000 0.000000 2.969113 -1.729680 -0.585332 2.594229 8.101283 -0.353637 0.000000 0.000000 0.000000 0.000000 0.000000 0.000000 -0.000000 0.000000 0.000000 0.966853 -0.555032 -0.269747 -0.750411 -4.864672 1.151665 -1.434621 4.879540 -0.783297 0.000000 0.000000 0.000000 0.000000 0.000000 0.000000 0.014080 -0.100435 -27.340986 -0.000000 0.000000 0.000000 -0.000000 0.000000 0.000000 0.000000 0.000000 0.000000 -1.299967 -0.582458 -27.822419 1.883117 1.819472 0.810647 -0.956653 -0.766297 -0.375540 0.000000 0.000000 0.000000
7.367926 63.509437 327.232301 -0.054527 0.116949 27.273638 -0.005125 -0.128934 -27.273588 -0.000000 0.000000 0.000000 -0.000000 0.000000 0.000000 0.000000 0.000000 0.000000 -0.000000 0.000000 0.000000 -0.158497 1.014981 0.109758 3.608703 -3.250727 -0.704994 3.119057 9.913731 -0.521654 0.000000 0.000000 0.000000 0.000000 0.000000 0.000000 -0.675099 0.436287 0.137675 1.657866 -0.917303 -0.401615 -1.455945 -5.110285 1.222743 -1.346850 5.029293 -0.856666 0.000000 0.000000 0.000000 0.000000 0.000000 0.000000 -0.005125 -0.128934 -27.273588 -0.000000 0.000000 0.000000 -0.000000 0.000000 0.000000 0.000000 0.000000 0.000000 -1.689359 -0.725190 -27.886884 2.383546 2.261370 1.005111 -1.189712 -0.925680 -0.464477 0.000000 0.000000 0.000000
7.358738 63.502461 327.209831 -0.038608 0.154459 27.219487 -0.036317 -0.155014 -27.219484 -0.000000 0.000000 0.000000 -0.000000 0.000000 0.000000 0.000000 0.000000 0.000000 -0.000000 0.000000 0.000000 -0.150541 1.208050 0.122839 3.946397 -3.978544 -0.737783 3.455813 11.463098 -0.657740 0.000000 0.000000 0.000000 0.000000 0.000000 0.000000 -0.000000 0.000000 0.000000 0.850807 -0.267684 -0.242446 -2.379351 -4.729562 1.146830 -0.987137 4.506964 -0.867225 0.000000 0.000000 0.000000 0.000000 0.000000 0.000000 -0.036317 -0.155014 -27.219484 -0.000000 0.000000 0.000000 -0.000000 0.000000 0.000000 0.000000 0.000000 0.000000 -2.053304 -0.840720 -27.948217 2.820954 2.617813 1.164514 -1.381134 -1.038668 -0.535064 0.000000 0.000000 0.000000
